<mxfile host="app.diagrams.net" modified="2023-10-18T18:01:21.223Z" agent="Mozilla/5.0 (Macintosh; Intel Mac OS X 10_15_7) AppleWebKit/537.36 (KHTML, like Gecko) Chrome/118.0.0.0 Safari/537.36" etag="QRVlOYRmBxUqWpqWhLIT" version="22.0.4" type="github">
  <diagram name="第 1 页" id="CVwKr8z6vn4hAvoOYOmV">
    <mxGraphModel dx="2120" dy="1427" grid="1" gridSize="10" guides="1" tooltips="1" connect="1" arrows="1" fold="1" page="1" pageScale="1" pageWidth="827" pageHeight="1169" math="0" shadow="0">
      <root>
        <mxCell id="0" />
        <mxCell id="1" parent="0" />
        <mxCell id="p51J1jFppIbg0KQrvtKk-1" value="使用者" style="shape=umlActor;verticalLabelPosition=bottom;verticalAlign=top;html=1;outlineConnect=0;" vertex="1" parent="1">
          <mxGeometry x="100" y="280" width="30" height="60" as="geometry" />
        </mxCell>
        <mxCell id="p51J1jFppIbg0KQrvtKk-6" value="輸入文字問題" style="ellipse;whiteSpace=wrap;html=1;" vertex="1" parent="1">
          <mxGeometry x="410" y="210" width="110" height="50" as="geometry" />
        </mxCell>
        <mxCell id="p51J1jFppIbg0KQrvtKk-7" value="解釋和反饋" style="ellipse;whiteSpace=wrap;html=1;" vertex="1" parent="1">
          <mxGeometry x="230" y="390" width="110" height="50" as="geometry" />
        </mxCell>
        <mxCell id="p51J1jFppIbg0KQrvtKk-8" value="上傳檔案" style="ellipse;whiteSpace=wrap;html=1;" vertex="1" parent="1">
          <mxGeometry x="230" y="495" width="110" height="50" as="geometry" />
        </mxCell>
        <mxCell id="p51J1jFppIbg0KQrvtKk-9" value="輸入語音問題" style="ellipse;whiteSpace=wrap;html=1;" vertex="1" parent="1">
          <mxGeometry x="400" y="100" width="110" height="50" as="geometry" />
        </mxCell>
        <mxCell id="p51J1jFppIbg0KQrvtKk-10" value="多功能輸入選擇" style="ellipse;whiteSpace=wrap;html=1;" vertex="1" parent="1">
          <mxGeometry x="230" y="180" width="110" height="50" as="geometry" />
        </mxCell>
        <mxCell id="p51J1jFppIbg0KQrvtKk-11" value="送出輸入問題" style="ellipse;whiteSpace=wrap;html=1;" vertex="1" parent="1">
          <mxGeometry x="230" y="285" width="110" height="50" as="geometry" />
        </mxCell>
        <mxCell id="p51J1jFppIbg0KQrvtKk-12" value="進入休息模式" style="ellipse;whiteSpace=wrap;html=1;" vertex="1" parent="1">
          <mxGeometry x="230" y="605" width="110" height="50" as="geometry" />
        </mxCell>
        <mxCell id="p51J1jFppIbg0KQrvtKk-13" value="蒐集訓練資料" style="ellipse;whiteSpace=wrap;html=1;" vertex="1" parent="1">
          <mxGeometry x="230" y="710" width="110" height="50" as="geometry" />
        </mxCell>
        <mxCell id="p51J1jFppIbg0KQrvtKk-14" value="訓練模型" style="ellipse;whiteSpace=wrap;html=1;" vertex="1" parent="1">
          <mxGeometry x="230" y="820" width="110" height="50" as="geometry" />
        </mxCell>
        <mxCell id="p51J1jFppIbg0KQrvtKk-15" value="開發者" style="shape=umlActor;verticalLabelPosition=bottom;verticalAlign=top;html=1;outlineConnect=0;" vertex="1" parent="1">
          <mxGeometry x="100" y="750" width="30" height="60" as="geometry" />
        </mxCell>
        <mxCell id="p51J1jFppIbg0KQrvtKk-16" value="" style="endArrow=none;html=1;rounded=0;exitX=1;exitY=0.3333333333333333;exitDx=0;exitDy=0;exitPerimeter=0;entryX=0;entryY=0.5;entryDx=0;entryDy=0;" edge="1" parent="1" source="p51J1jFppIbg0KQrvtKk-1" target="p51J1jFppIbg0KQrvtKk-10">
          <mxGeometry width="50" height="50" relative="1" as="geometry">
            <mxPoint x="440" y="510" as="sourcePoint" />
            <mxPoint x="490" y="460" as="targetPoint" />
          </mxGeometry>
        </mxCell>
        <mxCell id="p51J1jFppIbg0KQrvtKk-17" value="" style="endArrow=none;html=1;rounded=0;entryX=0;entryY=0.5;entryDx=0;entryDy=0;" edge="1" parent="1" target="p51J1jFppIbg0KQrvtKk-11">
          <mxGeometry width="50" height="50" relative="1" as="geometry">
            <mxPoint x="130" y="300" as="sourcePoint" />
            <mxPoint x="240" y="215" as="targetPoint" />
          </mxGeometry>
        </mxCell>
        <mxCell id="p51J1jFppIbg0KQrvtKk-18" value="" style="endArrow=none;html=1;rounded=0;entryX=0;entryY=0.2;entryDx=0;entryDy=0;entryPerimeter=0;" edge="1" parent="1" target="p51J1jFppIbg0KQrvtKk-7">
          <mxGeometry width="50" height="50" relative="1" as="geometry">
            <mxPoint x="130" y="300" as="sourcePoint" />
            <mxPoint x="250" y="225" as="targetPoint" />
          </mxGeometry>
        </mxCell>
        <mxCell id="p51J1jFppIbg0KQrvtKk-19" value="" style="endArrow=none;html=1;rounded=0;entryX=0;entryY=0.5;entryDx=0;entryDy=0;" edge="1" parent="1" target="p51J1jFppIbg0KQrvtKk-8">
          <mxGeometry width="50" height="50" relative="1" as="geometry">
            <mxPoint x="130" y="300" as="sourcePoint" />
            <mxPoint x="260" y="235" as="targetPoint" />
          </mxGeometry>
        </mxCell>
        <mxCell id="p51J1jFppIbg0KQrvtKk-20" value="" style="endArrow=none;html=1;rounded=0;exitX=1;exitY=0.3333333333333333;exitDx=0;exitDy=0;exitPerimeter=0;entryX=0;entryY=0.5;entryDx=0;entryDy=0;" edge="1" parent="1" source="p51J1jFppIbg0KQrvtKk-1" target="p51J1jFppIbg0KQrvtKk-12">
          <mxGeometry width="50" height="50" relative="1" as="geometry">
            <mxPoint x="140" y="330" as="sourcePoint" />
            <mxPoint x="490" y="460" as="targetPoint" />
          </mxGeometry>
        </mxCell>
        <mxCell id="p51J1jFppIbg0KQrvtKk-21" value="" style="endArrow=none;html=1;rounded=0;exitX=1;exitY=0.3333333333333333;exitDx=0;exitDy=0;exitPerimeter=0;entryX=0;entryY=0.5;entryDx=0;entryDy=0;" edge="1" parent="1" source="p51J1jFppIbg0KQrvtKk-15" target="p51J1jFppIbg0KQrvtKk-13">
          <mxGeometry width="50" height="50" relative="1" as="geometry">
            <mxPoint x="440" y="510" as="sourcePoint" />
            <mxPoint x="490" y="460" as="targetPoint" />
          </mxGeometry>
        </mxCell>
        <mxCell id="p51J1jFppIbg0KQrvtKk-22" value="" style="endArrow=none;html=1;rounded=0;exitX=1;exitY=0.3333333333333333;exitDx=0;exitDy=0;exitPerimeter=0;entryX=0;entryY=0.5;entryDx=0;entryDy=0;" edge="1" parent="1" source="p51J1jFppIbg0KQrvtKk-15" target="p51J1jFppIbg0KQrvtKk-14">
          <mxGeometry width="50" height="50" relative="1" as="geometry">
            <mxPoint x="170" y="340" as="sourcePoint" />
            <mxPoint x="270" y="245" as="targetPoint" />
          </mxGeometry>
        </mxCell>
        <mxCell id="p51J1jFppIbg0KQrvtKk-23" value="" style="endArrow=none;html=1;rounded=0;exitX=1;exitY=0.3333333333333333;exitDx=0;exitDy=0;exitPerimeter=0;entryX=0;entryY=0.5;entryDx=0;entryDy=0;" edge="1" parent="1" source="p51J1jFppIbg0KQrvtKk-1" target="p51J1jFppIbg0KQrvtKk-6">
          <mxGeometry width="50" height="50" relative="1" as="geometry">
            <mxPoint x="440" y="510" as="sourcePoint" />
            <mxPoint x="320" y="110" as="targetPoint" />
          </mxGeometry>
        </mxCell>
        <mxCell id="p51J1jFppIbg0KQrvtKk-24" value="" style="endArrow=none;html=1;rounded=0;entryX=0;entryY=0.5;entryDx=0;entryDy=0;" edge="1" parent="1" target="p51J1jFppIbg0KQrvtKk-9">
          <mxGeometry width="50" height="50" relative="1" as="geometry">
            <mxPoint x="130" y="300" as="sourcePoint" />
            <mxPoint x="490" y="460" as="targetPoint" />
            <Array as="points">
              <mxPoint x="220" y="125" />
            </Array>
          </mxGeometry>
        </mxCell>
        <mxCell id="p51J1jFppIbg0KQrvtKk-25" value="&amp;nbsp;《 actor 》&lt;br&gt;小鴨系統" style="rounded=0;whiteSpace=wrap;html=1;" vertex="1" parent="1">
          <mxGeometry x="590" y="470" width="120" height="60" as="geometry" />
        </mxCell>
        <mxCell id="p51J1jFppIbg0KQrvtKk-26" value="" style="endArrow=none;html=1;rounded=0;entryX=1;entryY=0.5;entryDx=0;entryDy=0;exitX=0;exitY=0.5;exitDx=0;exitDy=0;" edge="1" parent="1" source="p51J1jFppIbg0KQrvtKk-25" target="p51J1jFppIbg0KQrvtKk-11">
          <mxGeometry width="50" height="50" relative="1" as="geometry">
            <mxPoint x="440" y="510" as="sourcePoint" />
            <mxPoint x="490" y="460" as="targetPoint" />
          </mxGeometry>
        </mxCell>
        <mxCell id="p51J1jFppIbg0KQrvtKk-27" value="" style="endArrow=none;html=1;rounded=0;entryX=0.5;entryY=1;entryDx=0;entryDy=0;exitX=0;exitY=0.5;exitDx=0;exitDy=0;" edge="1" parent="1" source="p51J1jFppIbg0KQrvtKk-25" target="p51J1jFppIbg0KQrvtKk-6">
          <mxGeometry width="50" height="50" relative="1" as="geometry">
            <mxPoint x="440" y="510" as="sourcePoint" />
            <mxPoint x="490" y="460" as="targetPoint" />
          </mxGeometry>
        </mxCell>
        <mxCell id="p51J1jFppIbg0KQrvtKk-28" value="" style="endArrow=none;html=1;rounded=0;entryX=1;entryY=0.5;entryDx=0;entryDy=0;exitX=0;exitY=0.5;exitDx=0;exitDy=0;" edge="1" parent="1" source="p51J1jFppIbg0KQrvtKk-25" target="p51J1jFppIbg0KQrvtKk-9">
          <mxGeometry width="50" height="50" relative="1" as="geometry">
            <mxPoint x="440" y="510" as="sourcePoint" />
            <mxPoint x="490" y="460" as="targetPoint" />
          </mxGeometry>
        </mxCell>
        <mxCell id="p51J1jFppIbg0KQrvtKk-30" value="" style="endArrow=none;html=1;rounded=0;exitX=1;exitY=0.5;exitDx=0;exitDy=0;entryX=0;entryY=0.5;entryDx=0;entryDy=0;" edge="1" parent="1" source="p51J1jFppIbg0KQrvtKk-8" target="p51J1jFppIbg0KQrvtKk-25">
          <mxGeometry width="50" height="50" relative="1" as="geometry">
            <mxPoint x="440" y="510" as="sourcePoint" />
            <mxPoint x="490" y="460" as="targetPoint" />
          </mxGeometry>
        </mxCell>
        <mxCell id="p51J1jFppIbg0KQrvtKk-31" value="" style="endArrow=none;html=1;rounded=0;exitX=1;exitY=0.5;exitDx=0;exitDy=0;entryX=0;entryY=0.5;entryDx=0;entryDy=0;" edge="1" parent="1" source="p51J1jFppIbg0KQrvtKk-12" target="p51J1jFppIbg0KQrvtKk-25">
          <mxGeometry width="50" height="50" relative="1" as="geometry">
            <mxPoint x="440" y="510" as="sourcePoint" />
            <mxPoint x="490" y="460" as="targetPoint" />
          </mxGeometry>
        </mxCell>
        <mxCell id="p51J1jFppIbg0KQrvtKk-32" value="" style="endArrow=none;html=1;rounded=0;exitX=1;exitY=0.5;exitDx=0;exitDy=0;entryX=0;entryY=0.5;entryDx=0;entryDy=0;" edge="1" parent="1" source="p51J1jFppIbg0KQrvtKk-13" target="p51J1jFppIbg0KQrvtKk-25">
          <mxGeometry width="50" height="50" relative="1" as="geometry">
            <mxPoint x="440" y="510" as="sourcePoint" />
            <mxPoint x="490" y="460" as="targetPoint" />
          </mxGeometry>
        </mxCell>
        <mxCell id="p51J1jFppIbg0KQrvtKk-33" value="" style="endArrow=none;html=1;rounded=0;exitX=1;exitY=0.5;exitDx=0;exitDy=0;entryX=0;entryY=0.5;entryDx=0;entryDy=0;" edge="1" parent="1" source="p51J1jFppIbg0KQrvtKk-14" target="p51J1jFppIbg0KQrvtKk-25">
          <mxGeometry width="50" height="50" relative="1" as="geometry">
            <mxPoint x="440" y="510" as="sourcePoint" />
            <mxPoint x="490" y="460" as="targetPoint" />
          </mxGeometry>
        </mxCell>
      </root>
    </mxGraphModel>
  </diagram>
</mxfile>
